<svg xmlns="http://www.w3.org/2000/svg" width="512" height="512" viewBox="0 0 512 512">
  <g fill="none" fill-rule="evenodd" transform="translate(45)">
    <path
      fill="#FEFEFE"
      d="M262.157511,499.000178 L53.4392889,499.000178 C29.8161778,499.000178 10.6659556,479.849956 10.6659556,456.226844 L10.6659556,125.588622 L304.930844,125.588622 L304.930844,456.226844 C304.930844,479.849956 285.780622,499.000178 262.157511,499.000178"
    />
    <path
      fill="#010202"
      d="M255.150933,125.585067 L255.150933,456.2304 C255.150933,479.853511 236.000711,498.996622 212.3776,498.996622 L262.155378,498.996622 C285.778489,498.996622 304.928711,479.853511 304.928711,456.2304 L304.928711,125.585067 L255.150933,125.585067 Z"
      opacity=".15"
    />
    <path
      fill="#2E2E30"
      d="M21.3333333,136.253867 L21.3333333,456.232533 C21.3333333,473.932089 35.7333333,488.332089 53.44,488.332089 L262.158222,488.332089 C279.857778,488.332089 294.264889,473.932089 294.264889,456.232533 L294.264889,136.253867 L21.3333333,136.253867 Z M262.158222,509.665422 L53.44,509.665422 C23.9715556,509.665422 0,485.693867 0,456.232533 L0,125.5872 C0,119.692089 4.77866667,114.920533 10.6666667,114.920533 L304.931556,114.920533 C310.819556,114.920533 315.598222,119.692089 315.598222,125.5872 L315.598222,456.232533 C315.598222,485.693867 291.626667,509.665422 262.158222,509.665422 L262.158222,509.665422 Z"
    />
    <path
      fill="#FEFEFE"
      d="M304.928,191.209956 L304.928,230.257067 C369.184,230.257067 372.739556,260.621511 372.739556,298.068622 C372.739556,335.522844 342.382222,358.769067 304.928,358.769067 L304.928,397.823289 C363.943111,397.823289 411.786667,357.090844 411.786667,298.068622 C411.786667,239.053511 399.996444,191.209956 304.928,191.209956"
    />
    <path
      fill="#010202"
      d="M304.928,191.209956 L304.928,230.257067 C369.184,230.257067 372.739556,260.621511 372.739556,298.068622 C372.739556,335.522844 342.382222,358.769067 304.928,358.769067 L304.928,397.823289 C363.943111,397.823289 411.786667,357.090844 411.786667,298.068622 C411.786667,239.053511 399.996444,191.209956 304.928,191.209956"
      opacity=".15"
    />
    <path
      fill="#2E2E30"
      d="M315.597511,368.871822 L315.597511,386.656711 C365.041067,382.048711 401.122844,345.504711 401.122844,298.066489 C401.122844,247.627378 394.466844,205.508267 315.597511,202.094933 L315.597511,219.879822 C378.004622,223.421156 383.409067,258.8416 383.409067,298.066489 C383.409067,336.118044 355.476622,364.562489 315.597511,368.871822 M304.930844,408.487822 C299.042844,408.487822 294.264178,403.709156 294.264178,397.821156 L294.264178,358.774044 C294.264178,352.878933 299.042844,348.107378 304.930844,348.107378 C338.573511,348.107378 362.075733,327.527822 362.075733,298.066489 C362.075733,261.572267 359.423289,240.9216 304.930844,240.9216 C299.042844,240.9216 294.264178,236.150044 294.264178,230.254933 L294.264178,191.207822 C294.264178,185.319822 299.042844,180.541156 304.930844,180.541156 C408.219733,180.541156 422.456178,237.024711 422.456178,298.066489 C422.456178,361.021156 371.931733,408.487822 304.930844,408.487822"
    />
    <path
      fill="#B4814A"
      d="M196.725333,271.2 C218.407111,298.940444 218.556444,335.050667 197.059556,351.854222 C175.555556,368.657778 140.554667,359.790222 118.865778,332.049778 C97.184,304.309333 97.0346667,268.199111 118.538667,251.395556 C140.035556,234.592 175.043556,243.459556 196.725333,271.2"
    />
    <path
      fill="#2E2E30"
      d="M144.333511,253.559467 C136.980622,253.559467 130.324622,255.714133 125.105067,259.803022 C108.273067,272.958578 109.247289,302.419911 127.273956,325.481244 C138.943289,340.414578 155.796622,349.694578 171.256178,349.694578 C178.609067,349.694578 185.265067,347.5328 190.484622,343.451022 C198.228622,337.399467 202.466844,327.536356 202.417067,315.675022 C202.367289,302.789689 197.361067,289.328356 188.322844,277.765689 C176.6464,262.832356 159.793067,253.559467 144.333511,253.559467 M171.256178,371.027911 C149.048178,371.027911 126.328178,358.910578 110.463289,338.622578 C85.1975111,306.288356 85.8659556,263.394133 111.963733,242.992356 C120.980622,235.945244 132.173511,232.226133 144.333511,232.226133 C166.541511,232.226133 189.268622,244.343467 205.1264,264.631467 C217.065956,279.899022 223.679289,297.9968 223.7504,315.589689 C223.828622,334.192356 216.681956,350.057244 203.625956,360.261689 C194.609067,367.301689 183.416178,371.027911 171.256178,371.027911"
    />
    <path
      fill="#B4814A"
      d="M124.937244,247.332267 C124.937244,247.332267 128.464356,294.301156 157.797689,301.6256 C181.555911,307.556267 188.915911,354.6816 188.915911,354.6816"
    />
    <path
      fill="#2E2E30"
      d="M188.903111 365.344C183.747556 365.344 179.210667 361.589333 178.385778 356.334222 176.309333 343.235556 167.911111 315.139556 155.217778 311.975111 118.830222 302.894222 114.464 250.364444 114.300444 248.131556 113.859556 242.257778 118.261333 237.137778 124.142222 236.696889 129.909333 236.284444 135.128889 240.650667 135.576889 246.524444 135.633778 247.178667 139.331556 286.026667 160.380444 291.274667 190.147556 298.705778 198.588444 347.495111 199.456 353.034667 200.359111 358.851556 196.391111 364.298667 190.574222 365.208889 190.012444 365.301333 189.457778 365.344 188.903111 365.344M90.4305778 94.4234667C84.5425778 94.4234667 79.7639111 89.6519111 79.7639111 83.7568L79.7639111 41.8794667C79.7639111 35.9843556 84.5425778 31.2128 90.4305778 31.2128 96.3185778 31.2128 101.097244 35.9843556 101.097244 41.8794667L101.097244 83.7568C101.097244 89.6519111 96.3185778 94.4234667 90.4305778 94.4234667M225.166933 94.4234667C219.278933 94.4234667 214.500267 89.6519111 214.500267 83.7568L214.500267 41.8794667C214.500267 35.9843556 219.278933 31.2128 225.166933 31.2128 231.054933 31.2128 235.8336 35.9843556 235.8336 41.8794667L235.8336 83.7568C235.8336 89.6519111 231.054933 94.4234667 225.166933 94.4234667M157.729422 94.4234667C151.841422 94.4234667 147.062756 89.6519111 147.062756 83.7568L147.062756 10.6688C147.062756 4.77368889 151.841422.00213333333 157.729422.00213333333 163.617422.00213333333 168.396089 4.77368889 168.396089 10.6688L168.396089 83.7568C168.396089 89.6519111 163.617422 94.4234667 157.729422 94.4234667"
    />
    <path
      fill="#010202"
      d="M196.725333,271.199289 C190.176,262.8224 182.403556,256.194844 174.154667,251.444622 C189.713778,277.641956 187.928889,308.312178 168.615111,323.409067 C153.610667,335.135289 132.035556,334.331733 112.992,323.359289 C114.748444,326.317511 116.668444,329.233067 118.872889,332.049067 C140.554667,359.789511 175.555556,368.657067 197.059556,351.853511 C218.556444,335.049956 218.407111,298.939733 196.725333,271.199289"
      opacity=".15"
    />
  </g>
</svg>
